<svg width="148" height="43" viewBox="0 0 148 43" fill="none" xmlns="http://www.w3.org/2000/svg">
<g id="appstore">
<g id="Group">
<path id="Vector" d="M146.314 38.1209C146.314 40.3724 144.452 42.1962 142.15 42.1962H5.86091C3.55918 42.1962 1.69086 40.3724 1.69086 38.1209V5.62165C1.69086 3.37118 3.55918 1.54102 5.86091 1.54102H142.149C144.452 1.54102 146.313 3.37118 146.313 5.62165L146.314 38.1209Z" fill="black" style="fill:black;fill:black;fill-opacity:1;"/>
<path id="path16" d="M141.71 1.58994C144.218 1.58994 146.259 3.57963 146.259 6.02482V37.712C146.259 40.1572 144.218 42.1469 141.71 42.1469H6.29509C3.7872 42.1469 1.74649 40.1572 1.74649 37.712V6.02482C1.74649 3.57963 3.7872 1.58994 6.29509 1.58994H141.71ZM141.71 0.743631H6.29509C3.31731 0.743631 0.878479 3.12149 0.878479 6.02482V37.712C0.878479 40.6153 3.31731 42.9932 6.29509 42.9932H141.71C144.688 42.9932 147.127 40.6153 147.127 37.712V6.02482C147.127 3.12149 144.688 0.743631 141.71 0.743631Z" fill="#A6A6A6" style="fill:#A6A6A6;fill:color(display-p3 0.6510 0.6510 0.6510);fill-opacity:1;"/>
<g id="Group_2">
<g id="Group_3">
<g id="Vector_2">
<path d="M33.5173 21.64C33.4859 18.2358 36.3762 16.5796 36.5084 16.5025C34.8715 14.1756 32.3343 13.8577 31.4428 13.8323C29.3119 13.6137 27.2449 15.0755 26.1594 15.0755C25.0522 15.0755 23.3807 13.8535 21.5791 13.8894C19.2608 13.9242 17.092 15.2329 15.9025 17.2651C13.4477 21.4087 15.2785 27.4979 17.6304 30.8473C18.8069 32.4876 20.1816 34.3191 21.981 34.2547C23.7414 34.1839 24.399 33.1604 26.5234 33.1604C28.6283 33.1604 29.2458 34.2547 31.0809 34.2135C32.9702 34.1839 34.1597 32.5658 35.2951 30.9107C36.6546 29.0305 37.2006 27.179 37.2223 27.0839C37.1779 27.0691 33.5531 25.7203 33.5173 21.64Z" fill="white" style="fill:white;fill:white;fill-opacity:1;"/>
<path d="M30.0507 11.629C30.9975 10.4745 31.6453 8.90392 31.4655 7.31006C30.0951 7.36921 28.3813 8.23427 27.3944 9.36339C26.5212 10.3584 25.7412 11.9892 25.9427 13.5229C27.4821 13.6348 29.0627 12.7655 30.0507 11.629Z" fill="white" style="fill:white;fill:white;fill-opacity:1;"/>
</g>
</g>
</g>
<g id="Group_4">
<path id="Vector_3" d="M58.9933 34.0188H56.533L55.1854 29.89H50.5011L49.2174 34.0188H46.8221L51.4631 19.9624H54.3296L58.9933 34.0188ZM54.7791 28.1578L53.5604 24.4873C53.4315 24.1124 53.1899 23.2293 52.8335 21.8393H52.7902C52.6482 22.4372 52.4197 23.3202 52.1055 24.4873L50.9084 28.1578H54.7791Z" fill="white" style="fill:white;fill:white;fill-opacity:1;"/>
<path id="Vector_4" d="M70.928 28.8266C70.928 30.5503 70.4502 31.9129 69.4947 32.9132C68.6389 33.8036 67.5762 34.2482 66.3076 34.2482C64.9383 34.2482 63.9546 33.7687 63.3555 32.8096H63.3122V38.1489H61.0026V27.22C61.0026 26.1363 60.9733 25.0241 60.917 23.8834H62.9482L63.0771 25.4899H63.1205C63.8907 24.2795 65.0596 23.6753 66.6283 23.6753C67.8546 23.6753 68.8783 24.1474 69.6973 25.0928C70.5185 26.0392 70.928 27.2834 70.928 28.8266ZM68.575 28.909C68.575 27.9224 68.3475 27.1091 67.8903 26.469C67.3909 25.8015 66.7203 25.4677 65.8797 25.4677C65.3099 25.4677 64.792 25.6536 64.3295 26.0201C63.8658 26.3898 63.5625 26.8725 63.4205 27.4704C63.349 27.7492 63.3133 27.9774 63.3133 28.1569V29.8469C63.3133 30.5841 63.5451 31.2063 64.0088 31.7143C64.4725 32.2224 65.0748 32.4759 65.8158 32.4759C66.6857 32.4759 67.3628 32.1484 67.847 31.4957C68.3323 30.8419 68.575 29.98 68.575 28.909Z" fill="white" style="fill:white;fill:white;fill-opacity:1;"/>
<path id="Vector_5" d="M82.8847 28.8266C82.8847 30.5503 82.407 31.9129 81.4504 32.9132C80.5957 33.8036 79.5329 34.2482 78.2643 34.2482C76.895 34.2482 75.9114 33.7687 75.3134 32.8096H75.27V38.1489H72.9604V27.22C72.9604 26.1363 72.9311 25.0241 72.8748 23.8834H74.906L75.035 25.4899H75.0783C75.8474 24.2795 77.0164 23.6753 78.5861 23.6753C79.8113 23.6753 80.8351 24.1474 81.6562 25.0928C82.4741 26.0392 82.8847 27.2834 82.8847 28.8266ZM80.5317 28.909C80.5317 27.9224 80.3032 27.1091 79.846 26.469C79.3466 25.8015 78.6782 25.4677 77.8364 25.4677C77.2655 25.4677 76.7488 25.6536 76.2851 26.0201C75.8215 26.3898 75.5192 26.8725 75.3773 27.4704C75.3069 27.7492 75.27 27.9774 75.27 28.1569V29.8469C75.27 30.5841 75.5019 31.2063 75.9634 31.7143C76.427 32.2213 77.0294 32.4759 77.7725 32.4759C78.6424 32.4759 79.3195 32.1484 79.8037 31.4957C80.2891 30.8419 80.5317 29.98 80.5317 28.909Z" fill="white" style="fill:white;fill:white;fill-opacity:1;"/>
<path id="Vector_6" d="M96.2529 30.0773C96.2529 31.273 95.8272 32.2458 94.9724 32.9968C94.0332 33.8175 92.7256 34.2273 91.0454 34.2273C89.4941 34.2273 88.2504 33.9358 87.309 33.3517L87.8442 31.4747C88.8582 32.0726 89.9707 32.3725 91.183 32.3725C92.0529 32.3725 92.73 32.1803 93.2164 31.798C93.7006 31.4156 93.9422 30.9023 93.9422 30.2622C93.9422 29.6918 93.7429 29.2112 93.3431 28.8215C92.9455 28.4317 92.2815 28.0694 91.3541 27.7346C88.83 26.8167 87.569 25.4721 87.569 23.704C87.569 22.5485 88.011 21.601 88.8961 20.8638C89.7779 20.1255 90.9544 19.7568 92.4255 19.7568C93.7374 19.7568 94.8273 19.9797 95.6972 20.4244L95.1198 22.2601C94.3073 21.8292 93.3886 21.6137 92.3605 21.6137C91.5481 21.6137 90.9132 21.8091 90.4582 22.1978C90.0737 22.5453 89.8808 22.9689 89.8808 23.4706C89.8808 24.0262 90.1007 24.4856 90.5427 24.8468C90.9273 25.1806 91.6261 25.5419 92.6401 25.9316C93.8805 26.4185 94.7915 26.9878 95.3776 27.6406C95.9615 28.2912 96.2529 29.1056 96.2529 30.0773Z" fill="white" style="fill:white;fill:white;fill-opacity:1;"/>
<path id="Vector_7" d="M103.889 25.5734H101.344V30.4944C101.344 31.746 101.792 32.3713 102.691 32.3713C103.104 32.3713 103.446 32.3365 103.717 32.2667L103.781 33.9768C103.326 34.1426 102.727 34.2261 101.985 34.2261C101.073 34.2261 100.36 33.9546 99.8454 33.4128C99.333 32.8699 99.0751 31.9594 99.0751 30.6803V25.5712H97.5585V23.8813H99.0751V22.0255L101.344 21.3579V23.8813H103.889V25.5734Z" fill="white" style="fill:white;fill:white;fill-opacity:1;"/>
<path id="Vector_8" d="M115.375 28.8682C115.375 30.4261 114.918 31.7052 114.006 32.7055C113.05 33.7353 111.78 34.2487 110.197 34.2487C108.672 34.2487 107.457 33.7554 106.552 32.7689C105.646 31.7823 105.193 30.537 105.193 29.0361C105.193 27.4655 105.659 26.179 106.594 25.1787C107.527 24.1774 108.786 23.6768 110.368 23.6768C111.894 23.6768 113.121 24.17 114.047 25.1576C114.933 26.1156 115.375 27.3525 115.375 28.8682ZM112.979 28.9411C112.979 28.0063 112.774 27.2046 112.359 26.536C111.875 25.7269 111.183 25.3234 110.286 25.3234C109.358 25.3234 108.652 25.728 108.168 26.536C107.753 27.2057 107.548 28.02 107.548 28.9833C107.548 29.9181 107.753 30.7198 108.168 31.3873C108.668 32.1964 109.365 32.5999 110.265 32.5999C111.147 32.5999 111.839 32.1879 112.339 31.3662C112.765 30.6849 112.979 29.8748 112.979 28.9411Z" fill="white" style="fill:white;fill:white;fill-opacity:1;"/>
<path id="Vector_9" d="M122.883 25.8638C122.655 25.8226 122.411 25.8015 122.155 25.8015C121.343 25.8015 120.714 26.1004 120.272 26.6993C119.888 27.2274 119.695 27.895 119.695 28.7009V34.019H117.386L117.408 27.0753C117.408 25.9071 117.379 24.8435 117.321 23.8844H119.333L119.418 25.8237H119.482C119.725 25.1572 120.11 24.6206 120.636 24.2182C121.151 23.8559 121.707 23.6753 122.306 23.6753C122.519 23.6753 122.712 23.6901 122.883 23.7165V25.8638Z" fill="white" style="fill:white;fill:white;fill-opacity:1;"/>
<path id="Vector_10" d="M133.212 28.4716C133.212 28.8751 133.185 29.2152 133.128 29.493H126.199C126.226 30.4943 126.56 31.2601 127.204 31.7882C127.788 32.2604 128.543 32.497 129.47 32.497C130.496 32.497 131.432 32.3375 132.274 32.0174L132.636 33.5807C131.652 33.9989 130.491 34.207 129.151 34.207C127.539 34.207 126.273 33.7444 125.353 32.8202C124.434 31.896 123.974 30.6549 123.974 29.098C123.974 27.5696 124.401 26.2968 125.258 25.2818C126.155 24.1981 127.368 23.6562 128.893 23.6562C130.391 23.6562 131.525 24.1981 132.296 25.2818C132.905 26.1426 133.212 27.2073 133.212 28.4716ZM131.01 27.8875C131.025 27.22 130.874 26.6433 130.561 26.1564C130.161 25.53 129.547 25.2174 128.721 25.2174C127.966 25.2174 127.351 25.5226 126.882 26.1352C126.498 26.6222 126.269 27.2063 126.199 27.8865H131.01V27.8875Z" fill="white" style="fill:white;fill:white;fill-opacity:1;"/>
</g>
<g id="Group_5">
<g id="Group_6">
<path id="Vector_11" d="M54.0152 11.316C54.0152 12.5592 53.6328 13.495 52.869 14.1235C52.1616 14.7033 51.1563 14.9938 49.8542 14.9938C49.2085 14.9938 48.656 14.9663 48.1934 14.9114V8.11875C48.7968 8.02368 49.4468 7.9751 50.1488 7.9751C51.3892 7.9751 52.3241 8.2381 52.9546 8.76411C53.6609 9.35877 54.0152 10.209 54.0152 11.316ZM52.8181 11.3466C52.8181 10.5407 52.5993 9.9228 52.1616 9.49186C51.724 9.06197 51.0848 8.84649 50.2431 8.84649C49.8856 8.84649 49.5812 8.86973 49.3287 8.91832V14.0823C49.4685 14.1034 49.7242 14.1129 50.0957 14.1129C50.9646 14.1129 51.6351 13.8774 52.1075 13.4063C52.5798 12.9352 52.8181 12.2486 52.8181 11.3466Z" fill="white" style="fill:white;fill:white;fill-opacity:1;"/>
<path id="Vector_12" d="M60.3627 12.4018C60.3627 13.1676 60.1385 13.795 59.69 14.2872C59.2198 14.7931 58.5969 15.0456 57.8191 15.0456C57.0694 15.0456 56.4725 14.8037 56.0273 14.3178C55.5831 13.833 55.361 13.2215 55.361 12.4842C55.361 11.7131 55.5896 11.0805 56.0489 10.5893C56.5083 10.0982 57.1258 9.85205 57.9036 9.85205C58.6532 9.85205 59.2556 10.0939 59.7116 10.5787C60.145 11.0498 60.3627 11.6582 60.3627 12.4018ZM59.1851 12.4377C59.1851 11.9783 59.0833 11.5843 58.8807 11.2558C58.6424 10.8586 58.3033 10.6601 57.8624 10.6601C57.4063 10.6601 57.0597 10.8586 56.8213 11.2558C56.6177 11.5843 56.5169 11.9846 56.5169 12.4578C56.5169 12.9173 56.6188 13.3112 56.8213 13.6397C57.0673 14.0369 57.4096 14.2354 57.8516 14.2354C58.2849 14.2354 58.6251 14.0337 58.8699 13.6292C59.0801 13.2943 59.1851 12.8972 59.1851 12.4377Z" fill="white" style="fill:white;fill:white;fill-opacity:1;"/>
<path id="Vector_13" d="M68.8734 9.95312L67.2755 14.9322H66.2356L65.5737 12.7701C65.4057 12.2304 65.2692 11.6938 65.1631 11.1615H65.1425C65.0439 11.7086 64.9074 12.2441 64.7319 12.7701L64.0288 14.9322H62.9769L61.4744 9.95312H62.6411L63.2185 12.3202C63.3583 12.88 63.4731 13.4134 63.5652 13.9182H63.5858C63.6703 13.5021 63.81 12.9719 64.0072 12.3307L64.7319 9.95418H65.6571L66.3515 12.28C66.5194 12.8472 66.6559 13.3933 66.761 13.9193H66.7924C66.8693 13.407 66.9852 12.8609 67.139 12.28L67.7587 9.95418H68.8734V9.95312Z" fill="white" style="fill:white;fill:white;fill-opacity:1;"/>
<path id="Vector_14" d="M74.7589 14.9323H73.6235V12.0805C73.6235 11.2017 73.2812 10.7623 72.5944 10.7623C72.2575 10.7623 71.9856 10.8827 71.7743 11.1246C71.5652 11.3664 71.4591 11.6516 71.4591 11.978V14.9313H70.3238V11.376C70.3238 10.9387 70.3097 10.4644 70.2826 9.95109H71.2803L71.3334 10.7295H71.3648C71.497 10.4877 71.6942 10.288 71.9531 10.1285C72.2607 9.94264 72.6052 9.84863 72.9822 9.84863C73.4589 9.84863 73.8554 9.99862 74.1706 10.2996C74.5628 10.6683 74.7589 11.2186 74.7589 11.9495V14.9323Z" fill="white" style="fill:white;fill:white;fill-opacity:1;"/>
<path id="Vector_15" d="M77.8893 14.9322H76.7551V7.66846H77.8893V14.9322Z" fill="white" style="fill:white;fill:white;fill-opacity:1;"/>
<path id="Vector_16" d="M84.574 12.4018C84.574 13.1676 84.3498 13.795 83.9013 14.2872C83.4311 14.7931 82.8071 15.0456 82.0304 15.0456C81.2796 15.0456 80.6827 14.8037 80.2386 14.3178C79.7944 13.833 79.5723 13.2215 79.5723 12.4842C79.5723 11.7131 79.8009 11.0805 80.2602 10.5893C80.7196 10.0982 81.3371 9.85205 82.1138 9.85205C82.8645 9.85205 83.4658 10.0939 83.9229 10.5787C84.3563 11.0498 84.574 11.6582 84.574 12.4018ZM83.3954 12.4377C83.3954 11.9783 83.2935 11.5843 83.091 11.2558C82.8537 10.8586 82.5135 10.6601 82.0737 10.6601C81.6166 10.6601 81.2699 10.8586 81.0326 11.2558C80.829 11.5843 80.7282 11.9846 80.7282 12.4578C80.7282 12.9173 80.8301 13.3112 81.0326 13.6397C81.2786 14.0369 81.6209 14.2354 82.0629 14.2354C82.4962 14.2354 82.8353 14.0337 83.0801 13.6292C83.2914 13.2943 83.3954 12.8972 83.3954 12.4377Z" fill="white" style="fill:white;fill:white;fill-opacity:1;"/>
<path id="Vector_17" d="M90.0679 14.9326H89.0485L88.964 14.359H88.9326C88.5838 14.8164 88.0865 15.0456 87.4409 15.0456C86.9588 15.0456 86.5688 14.8945 86.2752 14.5946C86.0087 14.3221 85.8755 13.983 85.8755 13.5806C85.8755 12.9722 86.1355 12.5085 86.6587 12.1874C87.1809 11.8663 87.9154 11.7089 88.8611 11.7163V11.6234C88.8611 10.9674 88.508 10.64 87.8005 10.64C87.2968 10.64 86.8526 10.7636 86.4692 11.0086L86.2384 10.2819C86.7129 9.9957 87.299 9.85205 87.9901 9.85205C89.3248 9.85205 89.9943 10.5386 89.9943 11.9117V13.7453C89.9943 14.2428 90.0192 14.6389 90.0679 14.9326ZM88.8893 13.2215V12.4536C87.637 12.4324 87.0108 12.7673 87.0108 13.457C87.0108 13.7168 87.0823 13.9112 87.2286 14.0411C87.3748 14.171 87.5611 14.2354 87.7832 14.2354C88.0324 14.2354 88.2653 14.1583 88.4776 14.0052C88.691 13.851 88.8221 13.6556 88.8709 13.4158C88.8828 13.3619 88.8893 13.2964 88.8893 13.2215Z" fill="white" style="fill:white;fill:white;fill-opacity:1;"/>
<path id="Vector_18" d="M96.5194 14.9322H95.5119L95.4588 14.1326H95.4274C95.1056 14.741 94.5575 15.0452 93.7872 15.0452C93.1719 15.0452 92.6595 14.8097 92.2532 14.3386C91.847 13.8675 91.6444 13.256 91.6444 12.505C91.6444 11.6991 91.8643 11.0463 92.3063 10.5478C92.7342 10.083 93.2586 9.85065 93.8825 9.85065C94.5683 9.85065 95.0482 10.0756 95.3212 10.5266H95.3429V7.66846H96.4793V13.5908C96.4793 14.0756 96.4923 14.5224 96.5194 14.9322ZM95.3429 12.8324V12.0022C95.3429 11.8586 95.332 11.7424 95.3114 11.6536C95.2475 11.3875 95.1099 11.1635 94.9009 10.9829C94.6896 10.8023 94.435 10.7115 94.1415 10.7115C93.7179 10.7115 93.3864 10.8752 93.1426 11.2037C92.9011 11.5322 92.7786 11.9515 92.7786 12.4638C92.7786 12.956 92.8946 13.3552 93.1275 13.6626C93.3734 13.99 93.7049 14.1538 94.1198 14.1538C94.4925 14.1538 94.7904 14.0175 95.0168 13.7439C95.2356 13.4915 95.3429 13.1873 95.3429 12.8324Z" fill="white" style="fill:white;fill:white;fill-opacity:1;"/>
<path id="Vector_19" d="M106.229 12.4018C106.229 13.1676 106.005 13.795 105.557 14.2872C105.086 14.7931 104.465 15.0456 103.686 15.0456C102.937 15.0456 102.34 14.8037 101.894 14.3178C101.45 13.833 101.228 13.2215 101.228 12.4842C101.228 11.7131 101.456 11.0805 101.916 10.5893C102.375 10.0982 102.992 9.85205 103.771 9.85205C104.52 9.85205 105.123 10.0939 105.578 10.5787C106.012 11.0498 106.229 11.6582 106.229 12.4018ZM105.053 12.4377C105.053 11.9783 104.951 11.5843 104.748 11.2558C104.509 10.8586 104.171 10.6601 103.729 10.6601C103.274 10.6601 102.927 10.8586 102.688 11.2558C102.484 11.5843 102.384 11.9846 102.384 12.4578C102.384 12.9173 102.485 13.3112 102.688 13.6397C102.934 14.0369 103.276 14.2354 103.718 14.2354C104.152 14.2354 104.493 14.0337 104.738 13.6292C104.947 13.2943 105.053 12.8972 105.053 12.4377Z" fill="white" style="fill:white;fill:white;fill-opacity:1;"/>
<path id="Vector_20" d="M112.333 14.9323H111.199V12.0805C111.199 11.2017 110.857 10.7623 110.169 10.7623C109.832 10.7623 109.56 10.8827 109.35 11.1246C109.14 11.3664 109.035 11.6516 109.035 11.978V14.9313H107.898V11.376C107.898 10.9387 107.885 10.4644 107.858 9.95109H108.855L108.908 10.7295H108.939C109.072 10.4877 109.27 10.288 109.527 10.1285C109.836 9.94264 110.18 9.84863 110.558 9.84863C111.033 9.84863 111.43 9.99862 111.745 10.2996C112.138 10.6683 112.333 11.2186 112.333 11.9495V14.9323Z" fill="white" style="fill:white;fill:white;fill-opacity:1;"/>
<path id="Vector_21" d="M119.974 10.7825H118.724V13.2013C118.724 13.8161 118.946 14.1234 119.386 14.1234C119.59 14.1234 119.759 14.1065 119.892 14.0717L119.921 14.9114C119.697 14.9938 119.402 15.035 119.039 15.035C118.591 15.035 118.242 14.9019 117.99 14.6357C117.736 14.3695 117.611 13.9217 117.611 13.2932V10.7825H116.864V9.9534H117.611V9.04081L118.723 8.71338V9.95235H119.973V10.7825H119.974Z" fill="white" style="fill:white;fill:white;fill-opacity:1;"/>
<path id="Vector_22" d="M125.984 14.9322H124.848V12.1015C124.848 11.209 124.506 10.7622 123.82 10.7622C123.293 10.7622 122.934 11.021 122.737 11.5385C122.703 11.6473 122.683 11.7804 122.683 11.9367V14.9312H121.549V7.66846H122.683V10.6692H122.705C123.063 10.1232 123.575 9.85064 124.239 9.85064C124.709 9.85064 125.098 10.0006 125.407 10.3017C125.791 10.6766 125.984 11.2343 125.984 11.9716V14.9322Z" fill="white" style="fill:white;fill:white;fill-opacity:1;"/>
<path id="Vector_23" d="M132.184 12.2077C132.184 12.4063 132.169 12.5731 132.142 12.7094H128.737C128.752 13.2016 128.915 13.5766 129.23 13.8364C129.518 14.0688 129.89 14.185 130.345 14.185C130.849 14.185 131.308 14.1068 131.722 13.9494L131.899 14.7184C131.415 14.9233 130.845 15.0257 130.186 15.0257C129.395 15.0257 128.772 14.7986 128.321 14.3445C127.868 13.8903 127.644 13.2808 127.644 12.5161C127.644 11.7651 127.853 11.1398 128.275 10.6413C128.714 10.1089 129.309 9.84277 130.06 9.84277C130.794 9.84277 131.352 10.1089 131.729 10.6413C132.034 11.0638 132.184 11.5866 132.184 12.2077ZM131.101 11.9214C131.11 11.593 131.035 11.3099 130.881 11.0712C130.684 10.7638 130.384 10.6096 129.978 10.6096C129.607 10.6096 129.305 10.7596 129.074 11.0606C128.886 11.3004 128.774 11.5866 128.737 11.9214H131.101Z" fill="white" style="fill:white;fill:white;fill-opacity:1;"/>
</g>
</g>
</g>
</g>
</svg>
