<svg width="147" height="43" viewBox="0 0 147 43" fill="none" xmlns="http://www.w3.org/2000/svg">
<g id="googleplay">
<path id="path14" d="M140.638 42.2563H5.40916C2.43548 42.2563 0 39.8785 0 36.9752V5.28801C0 2.38468 2.43548 0.00681935 5.40916 0.00681935H140.638C143.612 0.00681935 146.047 2.38468 146.047 5.28801V36.9752C146.047 39.8785 143.612 42.2563 140.638 42.2563Z" fill="black" style="fill:black;fill:black;fill-opacity:1;"/>
<path id="path16" d="M140.638 0.85313C143.143 0.85313 145.181 2.84282 145.181 5.28801V36.9752C145.181 39.4203 143.143 41.41 140.638 41.41H5.40916C2.90472 41.41 0.866818 39.4203 0.866818 36.9752V5.28801C0.866818 2.84282 2.90472 0.85313 5.40916 0.85313H140.638ZM140.638 0.00681935H5.40916C2.43548 0.00681935 0 2.38468 0 5.28801V36.9752C0 39.8785 2.43548 42.2563 5.40916 42.2563H140.638C143.612 42.2563 146.047 39.8785 146.047 36.9752V5.28801C146.047 2.38468 143.612 0.00681935 140.638 0.00681935Z" fill="#A6A6A6" style="fill:#A6A6A6;fill:color(display-p3 0.6510 0.6510 0.6510);fill-opacity:1;"/>
<g id="g18">
<path id="path20" d="M51.2978 10.8266C51.2978 11.7085 51.0274 12.4149 50.4946 12.9417C49.882 13.5662 49.0841 13.8804 48.1064 13.8804C47.172 13.8804 46.3741 13.5609 45.7196 12.9311C45.0638 12.2921 44.7365 11.5079 44.7365 10.5691C44.7365 9.63039 45.0638 8.84613 45.7196 8.21239C46.3741 7.57733 47.172 7.25781 48.1064 7.25781C48.5716 7.25781 49.0152 7.35155 49.4384 7.52583C49.8603 7.70143 50.2038 7.93909 50.4526 8.23219L49.8874 8.78936C49.4533 8.28897 48.8624 8.04207 48.1064 8.04207C47.4249 8.04207 46.8339 8.27444 46.3322 8.74315C45.8359 9.21317 45.5871 9.82183 45.5871 10.5691C45.5871 11.3164 45.8359 11.9303 46.3322 12.4004C46.8339 12.8638 47.4249 13.1014 48.1064 13.1014C48.8299 13.1014 49.4384 12.8638 49.9185 12.3951C50.2349 12.0848 50.4148 11.657 50.4621 11.1104H48.1064V10.3473H51.2491C51.287 10.5123 51.2978 10.6721 51.2978 10.8266Z" fill="white" stroke="white" style="fill:white;fill:white;fill-opacity:1;stroke:white;stroke:white;stroke-opacity:1;" stroke-width="0.16" stroke-miterlimit="10"/>
</g>
<g id="g22">
<path id="path24" d="M56.2837 8.18049H53.3317V10.1873H55.993V10.9505H53.3317V12.9573H56.2837V13.735H52.496V7.40283H56.2837V8.18049Z" fill="white" stroke="white" style="fill:white;fill:white;fill-opacity:1;stroke:white;stroke:white;stroke-opacity:1;" stroke-width="0.16" stroke-miterlimit="10"/>
</g>
<g id="g26">
<path id="path28" d="M59.8021 13.735H58.9664V8.18049H57.1557V7.40283H61.6142V8.18049H59.8021V13.735Z" fill="white" stroke="white" style="fill:white;fill:white;fill-opacity:1;stroke:white;stroke:white;stroke-opacity:1;" stroke-width="0.16" stroke-miterlimit="10"/>
</g>
<g id="g30">
<path id="path32" d="M64.8411 13.735V7.40283H65.6755V13.735H64.8411Z" fill="white" stroke="white" style="fill:white;fill:white;fill-opacity:1;stroke:white;stroke:white;stroke-opacity:1;" stroke-width="0.16" stroke-miterlimit="10"/>
</g>
<g id="g34">
<path id="path36" d="M69.374 13.735H68.545V8.18049H66.7275V7.40283H71.1914V8.18049H69.374V13.735Z" fill="white" stroke="white" style="fill:white;fill:white;fill-opacity:1;stroke:white;stroke:white;stroke-opacity:1;" stroke-width="0.16" stroke-miterlimit="10"/>
</g>
<g id="g38">
<path id="path40" d="M79.6322 12.9206C78.9926 13.5609 78.2001 13.8804 77.2549 13.8804C76.3042 13.8804 75.5118 13.5609 74.8721 12.9206C74.2339 12.2815 73.9161 11.4973 73.9161 10.5691C73.9161 9.64095 74.2339 8.85669 74.8721 8.21767C75.5118 7.57732 76.3042 7.25781 77.2549 7.25781C78.1947 7.25781 78.9872 7.57732 79.6268 8.22295C80.2705 8.86726 80.5883 9.64623 80.5883 10.5691C80.5883 11.4973 80.2705 12.2815 79.6322 12.9206ZM75.4901 12.3898C75.9716 12.8638 76.5571 13.1014 77.2549 13.1014C77.9473 13.1014 78.5382 12.8638 79.0142 12.3898C79.4943 11.9158 79.7377 11.3072 79.7377 10.5691C79.7377 9.83107 79.4943 9.22242 79.0142 8.74843C78.5382 8.27444 77.9473 8.03679 77.2549 8.03679C76.5571 8.03679 75.9716 8.27444 75.4901 8.74843C75.0101 9.22242 74.7667 9.83107 74.7667 10.5691C74.7667 11.3072 75.0101 11.9158 75.4901 12.3898Z" fill="white" stroke="white" style="fill:white;fill:white;fill-opacity:1;stroke:white;stroke:white;stroke-opacity:1;" stroke-width="0.16" stroke-miterlimit="10"/>
</g>
<g id="g42">
<path id="path44" d="M81.7609 13.735V7.40283H82.7751L85.9287 12.3275H85.9652L85.9287 11.1102V7.40283H86.763V13.735H85.8921L82.5898 8.56733H82.5533L82.5898 9.78993V13.735H81.7609Z" fill="white" stroke="white" style="fill:white;fill:white;fill-opacity:1;stroke:white;stroke:white;stroke-opacity:1;" stroke-width="0.16" stroke-miterlimit="10"/>
</g>
<path id="path46" d="M73.7107 22.9828C71.1698 22.9828 69.094 24.8709 69.094 27.4758C69.094 30.0596 71.1698 31.9675 73.7107 31.9675C76.2571 31.9675 78.3329 30.0596 78.3329 27.4758C78.3329 24.8709 76.2571 22.9828 73.7107 22.9828ZM73.7107 30.1983C72.3165 30.1983 71.117 29.0747 71.117 27.4758C71.117 25.8558 72.3165 24.752 73.7107 24.752C75.1049 24.752 76.3098 25.8558 76.3098 27.4758C76.3098 29.0747 75.1049 30.1983 73.7107 30.1983ZM63.6375 22.9828C61.0912 22.9828 59.0208 24.8709 59.0208 27.4758C59.0208 30.0596 61.0912 31.9675 63.6375 31.9675C66.1825 31.9675 68.2542 30.0596 68.2542 27.4758C68.2542 24.8709 66.1825 22.9828 63.6375 22.9828ZM63.6375 30.1983C62.242 30.1983 61.0384 29.0747 61.0384 27.4758C61.0384 25.8558 62.242 24.752 63.6375 24.752C65.0317 24.752 66.2312 25.8558 66.2312 27.4758C66.2312 29.0747 65.0317 30.1983 63.6375 30.1983ZM51.6508 24.3599V26.2691H56.3203C56.1837 27.3359 55.8186 28.1201 55.2587 28.6667C54.5772 29.3269 53.5156 30.0596 51.6508 30.0596C48.7772 30.0596 46.527 27.7953 46.527 24.9897C46.527 22.1841 48.7772 19.9198 51.6508 19.9198C53.2046 19.9198 54.3351 20.5126 55.1695 21.281L56.5475 19.9356C55.3804 18.8477 53.828 18.0119 51.6508 18.0119C47.7103 18.0119 44.3985 21.1424 44.3985 24.9897C44.3985 28.837 47.7103 31.9675 51.6508 31.9675C53.7807 31.9675 55.3804 31.2862 56.6381 30.0081C57.9268 28.7499 58.3284 26.9807 58.3284 25.5521C58.3284 25.1085 58.2906 24.7006 58.223 24.3599H51.6508ZM100.666 25.84C100.286 24.8352 99.1135 22.9828 96.7254 22.9828C94.3589 22.9828 92.3886 24.8035 92.3886 27.4758C92.3886 29.9923 94.3386 31.9675 96.9526 31.9675C99.0662 31.9675 100.286 30.7092 100.788 29.9765L99.219 28.9559C98.6957 29.7032 97.983 30.1983 96.9526 30.1983C95.9289 30.1983 95.1946 29.7401 94.724 28.837L100.878 26.3509L100.666 25.84ZM94.3913 27.3359C94.3386 25.6036 95.7693 24.7164 96.7943 24.7164C97.5976 24.7164 98.2791 25.1085 98.5063 25.6696L94.3913 27.3359ZM89.3892 31.6942H91.4122V18.4912H89.3892V31.6942ZM86.0761 23.9836H86.0085C85.5541 23.4582 84.6873 22.9828 83.5892 22.9828C81.2849 22.9828 79.1781 24.958 79.1781 27.4903C79.1781 30.0081 81.2849 31.9675 83.5892 31.9675C84.6873 31.9675 85.5541 31.4882 86.0085 30.9469H86.0761V31.5912C86.0761 33.3089 85.1362 34.2318 83.6203 34.2318C82.3843 34.2318 81.6176 33.3604 81.3011 32.6276L79.5418 33.3445C80.0489 34.5354 81.3917 36.001 83.6203 36.001C85.9922 36.001 87.9936 34.6384 87.9936 31.3232V23.2561H86.0761V23.9836ZM83.7623 30.1983C82.3681 30.1983 81.2011 29.0589 81.2011 27.4903C81.2011 25.9073 82.3681 24.752 83.7623 24.752C85.1362 24.752 86.2194 25.9073 86.2194 27.4903C86.2194 29.0589 85.1362 30.1983 83.7623 30.1983ZM110.137 18.4912H105.299V31.6942H107.317V26.6916H110.137C112.378 26.6916 114.576 25.1085 114.576 22.5907C114.576 20.0742 112.373 18.4912 110.137 18.4912ZM110.19 24.855H107.317V20.3277H110.19C111.697 20.3277 112.557 21.549 112.557 22.5907C112.557 23.6126 111.697 24.855 110.19 24.855ZM122.662 22.9578C121.205 22.9578 119.689 23.5862 119.065 24.9791L120.856 25.7119C121.241 24.9791 121.95 24.7415 122.699 24.7415C123.745 24.7415 124.807 25.3554 124.823 26.4394V26.578C124.458 26.372 123.677 26.0671 122.715 26.0671C120.787 26.0671 118.822 27.1035 118.822 29.0377C118.822 30.8069 120.401 31.9463 122.177 31.9463C123.535 31.9463 124.284 31.3482 124.754 30.6525H124.823V31.673H126.772V26.6084C126.772 24.2675 124.981 22.9578 122.662 22.9578ZM122.419 30.193C121.759 30.193 120.839 29.8735 120.839 29.0747C120.839 28.0528 121.986 27.6607 122.979 27.6607C123.867 27.6607 124.284 27.8521 124.823 28.1043C124.665 29.3269 123.587 30.193 122.419 30.193ZM133.871 23.2469L131.552 28.9704H131.483L129.086 23.2469H126.91L130.512 31.2453L128.457 35.696H130.565L136.116 23.2469H133.871ZM115.684 31.6942H117.707V18.4912H115.684V31.6942Z" fill="white" style="fill:white;fill:white;fill-opacity:1;"/>
<g id="g48">
<path id="path64" d="M11.2891 7.96943C10.9713 8.29422 10.7874 8.7999 10.7874 9.45477V32.8135C10.7874 33.4684 10.9713 33.974 11.2891 34.2988L11.3675 34.3701L24.7741 21.286V20.977L11.3675 7.89285L11.2891 7.96943Z" fill="url(#paint0_linear_10_117)" style=""/>
</g>
<g id="g66">
<path id="path78" d="M29.2379 25.6494L24.774 21.2858V20.9769L29.2433 16.6133L29.3434 16.6701L34.6362 19.6104C36.1467 20.4448 36.1467 21.8179 34.6362 22.6576L29.3434 25.5926L29.2379 25.6494Z" fill="url(#paint1_linear_10_117)" style=""/>
</g>
<g id="g80">
<path id="path88" d="M29.3433 25.5931L24.7739 21.1318L11.2888 34.2992C11.7905 34.8141 12.6087 34.8761 13.5391 34.3612L29.3433 25.5931Z" fill="url(#paint2_linear_10_117)" style=""/>
</g>
<g id="g90">
<path id="path104" d="M29.3433 16.6701L13.5391 7.90196C12.6087 7.39233 11.7905 7.45438 11.2888 7.9693L24.7739 21.1313L29.3433 16.6701Z" fill="url(#paint3_linear_10_117)" style=""/>
</g>
</g>
<defs>
<linearGradient id="paint0_linear_10_117" x1="23.5837" y1="33.0567" x2="5.86261" y2="14.9062" gradientUnits="userSpaceOnUse">
<stop stop-color="#00A0FF" style="stop-color:#00A0FF;stop-color:color(display-p3 0.0000 0.6275 1.0000);stop-opacity:1;"/>
<stop offset="0.0066" stop-color="#00A1FF" style="stop-color:#00A1FF;stop-color:color(display-p3 0.0000 0.6314 1.0000);stop-opacity:1;"/>
<stop offset="0.2601" stop-color="#00BEFF" style="stop-color:#00BEFF;stop-color:color(display-p3 0.0000 0.7451 1.0000);stop-opacity:1;"/>
<stop offset="0.5122" stop-color="#00D2FF" style="stop-color:#00D2FF;stop-color:color(display-p3 0.0000 0.8235 1.0000);stop-opacity:1;"/>
<stop offset="0.7604" stop-color="#00DFFF" style="stop-color:#00DFFF;stop-color:color(display-p3 0.0000 0.8745 1.0000);stop-opacity:1;"/>
<stop offset="1" stop-color="#00E3FF" style="stop-color:#00E3FF;stop-color:color(display-p3 0.0000 0.8902 1.0000);stop-opacity:1;"/>
</linearGradient>
<linearGradient id="paint1_linear_10_117" x1="36.6032" y1="21.1299" x2="10.4262" y2="21.1299" gradientUnits="userSpaceOnUse">
<stop stop-color="#FFE000" style="stop-color:#FFE000;stop-color:color(display-p3 1.0000 0.8784 0.0000);stop-opacity:1;"/>
<stop offset="0.4087" stop-color="#FFBD00" style="stop-color:#FFBD00;stop-color:color(display-p3 1.0000 0.7412 0.0000);stop-opacity:1;"/>
<stop offset="0.7754" stop-color="#FFA500" style="stop-color:#FFA500;stop-color:color(display-p3 1.0000 0.6471 0.0000);stop-opacity:1;"/>
<stop offset="1" stop-color="#FF9C00" style="stop-color:#FF9C00;stop-color:color(display-p3 1.0000 0.6118 0.0000);stop-opacity:1;"/>
</linearGradient>
<linearGradient id="paint2_linear_10_117" x1="26.8586" y1="18.7066" x2="2.82728" y2="-5.90701" gradientUnits="userSpaceOnUse">
<stop stop-color="#FF3A44" style="stop-color:#FF3A44;stop-color:color(display-p3 1.0000 0.2275 0.2667);stop-opacity:1;"/>
<stop offset="1" stop-color="#C31162" style="stop-color:#C31162;stop-color:color(display-p3 0.7647 0.0667 0.3843);stop-opacity:1;"/>
</linearGradient>
<linearGradient id="paint3_linear_10_117" x1="7.89438" y1="42.07" x2="18.6254" y2="31.079" gradientUnits="userSpaceOnUse">
<stop stop-color="#32A071" style="stop-color:#32A071;stop-color:color(display-p3 0.1961 0.6275 0.4431);stop-opacity:1;"/>
<stop offset="0.0685" stop-color="#2DA771" style="stop-color:#2DA771;stop-color:color(display-p3 0.1765 0.6549 0.4431);stop-opacity:1;"/>
<stop offset="0.4762" stop-color="#15CF74" style="stop-color:#15CF74;stop-color:color(display-p3 0.0824 0.8118 0.4549);stop-opacity:1;"/>
<stop offset="0.8009" stop-color="#06E775" style="stop-color:#06E775;stop-color:color(display-p3 0.0235 0.9059 0.4588);stop-opacity:1;"/>
<stop offset="1" stop-color="#00F076" style="stop-color:#00F076;stop-color:color(display-p3 0.0000 0.9412 0.4627);stop-opacity:1;"/>
</linearGradient>
</defs>
</svg>
