<svg width="41" height="41" viewBox="0 0 41 41" fill="none" xmlns="http://www.w3.org/2000/svg">
<g id="Frame" clip-path="url(#clip0_11_271)">
<g id="Group">
<path id="Vector" d="M31.7701 9.19663C31.6878 9.11422 31.59 9.04889 31.4824 9.00438C31.3748 8.95987 31.2594 8.93706 31.143 8.93726C31.0266 8.93706 30.9112 8.95986 30.8036 9.00436C30.696 9.04885 30.5983 9.11417 30.516 9.19655C30.1702 9.54233 30.1702 10.105 30.516 10.4507C30.8618 10.7966 31.4244 10.7964 31.77 10.4507C31.8526 10.3685 31.9181 10.2707 31.9627 10.1631C32.0073 10.0555 32.0301 9.94006 32.0298 9.82356C32.0301 9.70708 32.0073 9.59169 31.9627 9.48407C31.9182 9.37646 31.8527 9.27876 31.7701 9.19663ZM17.0894 22.2112C16.8493 21.9712 16.6226 21.855 16.4089 21.862C16.1954 21.8693 15.9829 21.9784 15.7718 22.1896L15.0589 22.9025L16.3981 24.2417L17.111 23.5289C17.3221 23.3177 17.4313 23.1053 17.4386 22.8917C17.4458 22.6782 17.3294 22.4514 17.0894 22.2112Z" fill="black" style="fill:black;fill:black;fill-opacity:1;"/>
<path id="Vector_2" d="M40.9404 15.8271L38.987 5.02257C38.7115 3.49812 37.5021 2.2887 35.9777 2.01308L25.1731 0.0597336C24.5798 -0.0474818 23.9694 -0.00944777 23.3941 0.170584C22.8187 0.350616 22.2955 0.667292 21.8692 1.09354L1.09346 21.8694C0.388378 22.5745 0 23.5119 0 24.5091C0 25.5062 0.388298 26.4437 1.09346 27.1487L13.8515 39.9067C14.5566 40.6119 15.494 41.0002 16.4912 41.0002C17.4883 41.0002 18.4259 40.6119 19.1309 39.9067L39.9066 19.1309C40.3328 18.7046 40.6494 18.1814 40.8295 17.606C41.0095 17.0307 41.0476 16.4203 40.9404 15.8271ZM15.3792 30.9701C15.3288 31.1406 15.2268 31.3026 15.0733 31.4561C14.9196 31.6098 14.7577 31.7118 14.5873 31.762C14.4169 31.8126 14.2767 31.7825 14.1661 31.672L9.59414 27.1C9.48379 26.9896 9.44648 26.8565 9.48251 26.7006C9.51839 26.5446 9.60367 26.3994 9.73812 26.2648L12.2366 23.7664C12.3469 23.6561 12.479 23.62 12.6325 23.6583C12.7862 23.6967 12.9276 23.7808 13.0573 23.9105C13.1964 24.0497 13.2841 24.1973 13.3202 24.3532C13.356 24.5094 13.3212 24.6401 13.2157 24.7456L11.3508 26.6105L12.5677 27.8273L13.6549 26.7401C13.7604 26.6346 13.8864 26.5949 14.0329 26.6213C14.1792 26.6477 14.3125 26.7211 14.4324 26.8409C14.5428 26.9514 14.6124 27.0786 14.6412 27.2225C14.6699 27.3665 14.6292 27.4938 14.5189 27.6042L13.4316 28.6914L15.2892 30.5489C15.3998 30.6594 15.4297 30.7998 15.3792 30.9701ZM21.4993 24.7421C21.4729 25.0181 21.3756 25.2402 21.2076 25.4082C21.0395 25.5763 20.8501 25.6265 20.6388 25.5594L17.7373 24.6306L17.2621 25.1058L18.9972 26.8409C19.1077 26.9514 19.1376 27.0919 19.0872 27.2622C19.0367 27.4328 18.9348 27.5947 18.7812 27.7482C18.6276 27.9019 18.4657 28.0038 18.2953 28.0541C18.1248 28.1047 17.9846 28.0746 17.8741 27.9641L13.2949 23.3849C13.2037 23.2937 13.1571 23.1822 13.1546 23.05C13.1522 22.9181 13.2015 22.8016 13.3023 22.7009L14.7927 21.2105C15.9735 20.0297 17.0776 19.9529 18.1047 20.98C18.8535 21.7289 19.0502 22.5065 18.6951 23.3128L21.1646 24.0257C21.2223 24.0353 21.2774 24.0665 21.3302 24.1193C21.4693 24.2587 21.5257 24.4661 21.4993 24.7421ZM25.4773 21.0522L22.9142 23.6153C22.7797 23.7498 22.6346 23.8349 22.4784 23.8709C22.3225 23.907 22.1894 23.8697 22.0789 23.7592L17.507 19.1872C17.3966 19.0769 17.3593 18.9438 17.3953 18.7878C17.4313 18.6317 17.5165 18.4866 17.6509 18.3521L20.2142 15.789C20.3245 15.6786 20.4566 15.6426 20.6101 15.6809C20.7638 15.7193 20.9052 15.8033 21.0349 15.933C21.1741 16.0723 21.2617 16.2199 21.2978 16.3758C21.3337 16.5319 21.2988 16.6626 21.1933 16.7682L19.2636 18.6978L20.4805 19.9147L21.5606 18.8346C21.6661 18.7291 21.7922 18.6894 21.9386 18.7157C22.0849 18.7422 22.2183 18.8154 22.3381 18.9353C22.4486 19.0457 22.5182 19.173 22.5469 19.317C22.5756 19.4609 22.5349 19.5883 22.4246 19.6986L21.3445 20.7787L22.5684 22.0026L24.498 20.073C24.6035 19.9675 24.7344 19.9327 24.8904 19.9686C25.0465 20.0047 25.1939 20.0922 25.3331 20.2315C25.4626 20.3609 25.5468 20.5026 25.5852 20.6562C25.6237 20.8099 25.5876 20.9417 25.4773 21.0522ZM29.3579 17.1714L26.7946 19.7347C26.6602 19.8692 26.515 19.9544 26.3589 19.9903C26.203 20.0264 26.0699 19.9891 25.9594 19.8786L21.3875 15.3067C21.2771 15.1963 21.2398 15.0632 21.2758 14.9072C21.3118 14.7512 21.397 14.6061 21.5314 14.4715L24.0946 11.9084C24.2049 11.798 24.3371 11.762 24.4905 11.8003C24.6442 11.8388 24.7857 11.9227 24.9153 12.0525C25.0545 12.1917 25.1422 12.3393 25.1782 12.4952C25.2141 12.6514 25.1792 12.782 25.0737 12.8876L23.1441 14.8172L24.3609 16.0341L25.441 14.954C25.5465 14.8485 25.6725 14.8088 25.819 14.8352C25.9654 14.8616 26.0986 14.9349 26.2185 15.0548C26.3289 15.1652 26.3985 15.2925 26.4273 15.4364C26.456 15.5804 26.4153 15.7077 26.305 15.818L25.2249 16.8981L26.4488 18.122L28.3784 16.1924C28.4839 16.0869 28.6148 16.0522 28.7708 16.0881C28.927 16.1241 29.0744 16.2116 29.2136 16.3509C29.3431 16.4804 29.4272 16.6221 29.4657 16.7756C29.5045 16.9291 29.4684 17.0611 29.3579 17.1714ZM33.4703 12.1512C32.8287 12.7928 31.9859 13.1136 31.1431 13.1136C30.3002 13.1136 29.4575 12.7928 28.8159 12.1511C27.5326 10.8679 27.5326 8.7799 28.8159 7.49665C30.0991 6.21341 32.1871 6.21333 33.4703 7.49665C34.092 8.1183 34.4342 8.94479 34.4342 9.82388C34.4342 10.703 34.0919 11.5295 33.4703 12.1512Z" fill="black" style="fill:black;fill:black;fill-opacity:1;"/>
</g>
</g>
<defs>
<clipPath id="clip0_11_271">
<rect width="41" height="41" fill="white" style="fill:white;fill:white;fill-opacity:1;"/>
</clipPath>
</defs>
</svg>
