<svg width="46" height="46" viewBox="0 0 46 46" fill="none" xmlns="http://www.w3.org/2000/svg">
<g id="Frame">
<g id="Group">
<path id="Vector" d="M40.94 37.5475C42.5213 40.0128 39.0066 42.6937 37.0516 40.5159L29.9359 32.6097C30.9206 31.8191 31.8191 30.9206 32.6097 29.9359C34.6294 31.7472 36.6419 33.5584 38.6544 35.3769C39.3875 36.0309 40.4009 36.7066 40.94 37.5475ZM40.3722 23.3594C40.8322 23.3594 40.8322 24.0781 40.3722 24.0781H34.1334L34.3419 23.3594H40.3722ZM35.3409 4.3125H38.9347V21.5625H35.3409V4.3125ZM33.1847 7.1875V12.4056C32.2929 10.6498 31.073 9.08099 29.5909 7.78406V7.1875H33.1847ZM29.6269 8.78313C34.3491 13.3256 35.4775 20.6784 32.3581 26.4356C32.2144 26.5147 32.2288 26.7303 32.3725 26.8022C33.3644 28.3331 31.9125 29.785 30.8703 30.8056C29.7994 31.855 28.3906 33.4003 26.8022 32.3725C26.6728 32.1138 24.7681 33.1344 24.4375 33.2566C23.5391 33.58 22.6047 33.8244 21.6559 33.9681C14.4541 35.0822 7.34563 30.5684 5.28281 23.5966C3.39969 17.25 6.10219 10.2278 11.7731 6.79938C17.4225 3.38531 24.8616 4.20469 29.6269 8.78313ZM30.4678 23.6109C30.9853 22.3028 31.2656 20.8797 31.2656 19.4062C31.2656 12.7075 25.4869 7.22344 18.8025 7.56125C12.1109 7.89906 6.93594 13.9509 7.60438 20.6066C7.73375 21.9219 8.09313 23.1725 8.625 24.3225C10.6159 28.5991 15.1081 31.4956 20.01 31.2512C24.7609 31.0069 28.8219 27.8659 30.4678 23.6109Z" fill="black" style="fill:black;fill:black;fill-opacity:1;"/>
<path id="Vector_2" d="M29.5909 14.8853C30.5181 16.9841 30.7769 19.3128 30.3384 21.5625H29.5909V14.8853ZM29.8209 23.3594L29.5191 24.0781H10.9034C10.7238 24.0781 10.6159 23.9775 10.5728 23.8481C10.5009 23.6397 10.6088 23.3594 10.9034 23.3594H29.8209ZM27.4347 11.6797V21.5625H23.8409V10.0625H25.4725C26.1841 10.5225 26.8453 11.0688 27.4347 11.6797ZM18.0909 12.9375H21.6847V21.5625H18.0909V12.9375ZM12.3409 15.8125H15.9347V21.5625H12.3409V15.8125Z" fill="black" style="fill:black;fill:black;fill-opacity:1;"/>
</g>
</g>
</svg>
