<svg width="37" height="37" viewBox="0 0 37 37" fill="none" xmlns="http://www.w3.org/2000/svg">
<g id="Frame" clip-path="url(#clip0_11_275)">
<g id="Group">
<path id="Vector" d="M3.25195 37H18.5C20.2932 37 21.752 35.5412 21.752 33.748V28.2559H14.1641C12.3709 28.2559 10.9121 26.7971 10.9121 25.0039V9.82812C10.9121 8.03493 12.3709 6.57617 14.1641 6.57617H21.752V3.25195C21.752 1.45875 20.2932 0 18.5 0H3.25195C1.45875 0 0 1.45875 0 3.25195V33.748C0 35.5412 1.45875 37 3.25195 37ZM10.9121 3.25195C11.5108 3.25195 11.9961 3.80941 11.9961 4.4082C11.9961 5.00685 11.5108 5.49219 10.9121 5.49219C10.3135 5.49219 9.82812 5.00685 9.82812 4.4082C9.82812 3.80941 10.3135 3.25195 10.9121 3.25195ZM9.82812 30.4238H11.9961C12.5952 30.4238 13.0801 30.9087 13.0801 31.5078C13.0801 32.107 12.5952 32.5918 11.9961 32.5918H9.82812C9.22897 32.5918 8.74414 32.107 8.74414 31.5078C8.74414 30.9087 9.22897 30.4238 9.82812 30.4238Z" fill="black" style="fill:black;fill:black;fill-opacity:1;"/>
<path id="Vector_2" d="M35.916 8.74414H14.1641C13.5649 8.74414 13.0801 9.22897 13.0801 9.82812V13.0801H37V9.82812C37 9.22897 36.5152 8.74414 35.916 8.74414ZM13.0801 25.0039C13.0801 25.6031 13.5649 26.0879 14.1641 26.0879H35.916C36.5152 26.0879 37 25.6031 37 25.0039V15.248H13.0801V25.0039ZM29.3398 17.416H31.5078C32.107 17.416 32.5918 17.9008 32.5918 18.5C32.5918 19.0992 32.107 19.584 31.5078 19.584H29.3398C28.7407 19.584 28.2559 19.0992 28.2559 18.5C28.2559 17.9008 28.7407 17.416 29.3398 17.416Z" fill="black" style="fill:black;fill:black;fill-opacity:1;"/>
</g>
</g>
<defs>
<clipPath id="clip0_11_275">
<rect width="37" height="37" fill="white" style="fill:white;fill:white;fill-opacity:1;"/>
</clipPath>
</defs>
</svg>
