<svg width="45" height="45" viewBox="0 0 45 45" fill="none" xmlns="http://www.w3.org/2000/svg">
<g id="Frame" clip-path="url(#clip0_11_283)">
<g id="Group">
<g id="Mask group">
<mask id="mask0_11_283" style="mask-type:luminance" maskUnits="userSpaceOnUse" x="0" y="-39" width="45" height="84">
<g id="Group_2">
<path id="Vector" d="M45 0H0V45H45V0Z" fill="white" style="fill:white;fill:white;fill-opacity:1;"/>
<path id="Vector_2" d="M30.7748 -38.3998L28.6753 -37.5599C27.1384 -36.9452 25.4004 -36.8605 23.751 -36.8605C23.1963 -36.8605 22.643 -36.8711 22.0573 -36.8824C21.4728 -36.8937 20.8686 -36.9053 20.264 -36.9053H15.8125C12.3106 -36.9053 9.3152 -34.2886 8.84499 -30.8184L8.7636 -30.218C8.21481 -29.9142 7.70815 -29.5399 7.25655 -29.1045C5.84547 -27.7443 5.06834 -25.9162 5.06834 -23.9568C5.06834 -21.452 6.38547 -19.1748 8.43525 -17.8917C8.59573 -16.4941 9.14355 -15.2128 9.96832 -14.1576C6.45754 -13.5481 3.77934 -10.4794 3.77934 -6.79697V0.761597H41.2206V-6.79697C41.2206 -10.4794 38.5424 -13.5481 35.0317 -14.1576C35.8564 -15.2128 36.4042 -16.4941 36.5648 -17.8917C38.6145 -19.1748 39.9316 -21.452 39.9316 -23.9568C39.9316 -26.9461 38.0751 -29.5733 35.3682 -30.6227L31.9247 -36.4528L30.7748 -38.3998ZM29.6545 -35.1118L33.6245 -28.3902C35.7118 -27.9945 37.2949 -26.1567 37.2949 -23.9568C37.2949 -21.882 35.8874 -20.1299 33.9771 -19.6049V-18.7501C33.9771 -16.0846 31.8085 -13.9161 29.1431 -13.9161H28.5058V-11.6309H33.75C36.4154 -11.6309 38.5839 -9.46243 38.5839 -6.79697V-1.87511H6.41605V-6.79697C6.41605 -9.46243 8.58457 -11.6309 11.25 -11.6309H16.4942V-13.9161H15.8569C13.1914 -13.9161 11.0229 -16.0846 11.0229 -18.7501V-19.6049C9.11262 -20.1299 7.70505 -21.882 7.70505 -23.9568C7.70505 -25.1936 8.19557 -26.3475 9.08625 -27.2059C9.67793 -27.7761 10.394 -28.1651 11.171 -28.3485L11.4579 -30.4644C11.7517 -32.6331 13.6239 -34.2686 15.8125 -34.2686H20.264C21.4227 -34.2686 22.5909 -34.2238 23.751 -34.2238C25.7764 -34.2238 27.7764 -34.3606 29.6545 -35.1118Z" fill="black" style="fill:black;fill:black;fill-opacity:1;"/>
<path id="Vector_3" d="M39.1845 26.9971C39.1845 36.2117 31.7146 43.6816 22.5 43.6816C13.3081 43.6817 5.88436 36.3158 5.81598 27.1241C5.79032 23.6824 6.80686 20.4797 8.5688 17.8125C8.96105 17.2188 11.2501 14.0625 11.2501 14.0625L12.794 15.6066C13.1842 15.9968 13.6647 16.2846 14.1929 16.4445C14.721 16.6044 15.2805 16.6314 15.8216 16.5232C17.3946 16.2086 18.5248 14.8241 18.5159 13.22C18.5068 11.5664 18.7318 9.41146 19.6875 7.50011C21.6928 3.48959 25.3125 1.87512 25.3125 1.87512C25.3125 1.87512 27.0479 8.43746 34.6874 16.875C37.059 19.4942 39.1845 23.1909 39.1845 26.9971Z" fill="white" style="fill:white;fill:white;fill-opacity:1;"/>
<path id="Vector_4" d="M27.6971 31.315C27.6971 30.1562 27.3166 29.8103 26.9361 29.8103C26.5556 29.8103 26.1752 30.1562 26.1752 31.315C26.1752 32.4737 26.5556 32.8197 26.9361 32.8197C27.3166 32.8197 27.6971 32.4737 27.6971 31.315ZM23.7192 31.315C23.7192 29.1704 25.1028 27.9424 26.9361 27.9424C28.7693 27.9424 30.1529 29.1704 30.1529 31.315C30.1529 33.4768 28.7693 34.6875 26.9361 34.6875C25.1028 34.6875 23.7192 33.4768 23.7192 31.315ZM18.8248 25.6076C18.8248 24.4489 18.4443 24.103 18.0638 24.103C17.6834 24.103 17.3029 24.4489 17.3029 25.6076C17.3029 26.7664 17.6834 27.1123 18.0638 27.1123C18.4443 27.1123 18.8248 26.7664 18.8248 25.6076ZM25.1721 22.4082H28.0949L19.8279 34.5145H16.9051L25.1721 22.4082ZM14.847 25.6076C14.847 23.4631 16.2306 22.2352 18.0638 22.2352C19.8971 22.2352 21.2807 23.4631 21.2807 25.6076C21.2807 27.7696 19.8971 28.9802 18.0638 28.9802C16.2306 28.9802 14.847 27.7696 14.847 25.6076Z" fill="black" style="fill:black;fill:black;fill-opacity:1;"/>
<path id="Vector_5" d="M28.7511 45H29.2443L29.1138 44.6738L28.7511 45Z" fill="white" style="fill:white;fill:white;fill-opacity:1;"/>
<path id="Vector_6" d="M26.8279 44.9565L26.7796 45H30.6642L29.6362 42.4306L26.8279 44.9565Z" fill="black" style="fill:black;fill:black;fill-opacity:1;"/>
</g>
</mask>
<g mask="url(#mask0_11_283)">
<g id="Group_3">
<g id="Clip path group">
<mask id="mask1_11_283" style="mask-type:luminance" maskUnits="userSpaceOnUse" x="0" y="0" width="45" height="45">
<g id="b">
<path id="Vector_7" d="M0 0.0001297H44.9999V45H0V0.0001297Z" fill="white" style="fill:white;fill:white;fill-opacity:1;"/>
</g>
</mask>
<g mask="url(#mask1_11_283)">
<g id="Group_4">
<path id="Vector_8" d="M30.7747 -38.3995L28.6752 -37.5596C27.1383 -36.9449 25.4003 -36.8602 23.751 -36.8602C23.1962 -36.8602 22.6429 -36.8708 22.0572 -36.8821C21.4728 -36.8934 20.8685 -36.905 20.2639 -36.905H15.8124C12.3105 -36.905 9.31514 -34.2882 8.84493 -30.8181L8.76354 -30.2177C8.21475 -29.9139 7.70809 -29.5396 7.25649 -29.1042C5.84541 -27.744 5.06828 -25.9159 5.06828 -23.9565C5.06828 -21.4517 6.38541 -19.1745 8.43518 -17.8914C8.59567 -16.4938 9.14349 -15.2125 9.96826 -14.1573C6.45748 -13.5478 3.77928 -10.4791 3.77928 -6.79667V0.761902H41.2206V-6.79667C41.2206 -10.4791 38.5424 -13.5478 35.0317 -14.1573C35.8564 -15.2125 36.4042 -16.4938 36.5648 -17.8914C38.6144 -19.1745 39.9316 -21.4517 39.9316 -23.9565C39.9316 -26.9458 38.0751 -29.573 35.3681 -30.6224L31.9247 -36.4525L30.7747 -38.3995ZM29.6545 -35.1115L33.6245 -28.3899C35.7118 -27.9942 37.2949 -26.1564 37.2949 -23.9565C37.2949 -21.8817 35.8874 -20.1295 33.977 -19.6046V-18.7498C33.977 -16.0843 31.8085 -13.9158 29.143 -13.9158H28.5057V-11.6306H33.7499C36.4153 -11.6306 38.5839 -9.46212 38.5839 -6.79667V-1.87481H6.41599V-6.79667C6.41599 -9.46212 8.58451 -11.6306 11.25 -11.6306H16.4941V-13.9158H15.8568C13.1914 -13.9158 11.0229 -16.0843 11.0229 -18.7498V-19.6046C9.11256 -20.1295 7.70499 -21.8817 7.70499 -23.9565C7.70499 -25.1933 8.19551 -26.3472 9.08619 -27.2056C9.67787 -27.7758 10.3939 -28.1647 11.1709 -28.3482L11.4578 -30.4641C11.7516 -32.6328 13.6238 -34.2683 15.8124 -34.2683H20.2639C21.4227 -34.2683 22.5908 -34.2235 23.751 -34.2235C25.7763 -34.2235 27.7763 -34.3603 29.6545 -35.1115Z" fill="white" style="fill:white;fill:white;fill-opacity:1;"/>
</g>
</g>
</g>
<g id="Clip path group_2">
<mask id="mask2_11_283" style="mask-type:luminance" maskUnits="userSpaceOnUse" x="0" y="0" width="45" height="45">
<g id="c">
<path id="Vector_9" d="M0 0.0001297H44.9999V45H0V0.0001297Z" fill="white" style="fill:white;fill:white;fill-opacity:1;"/>
</g>
</mask>
<g mask="url(#mask2_11_283)">
<g id="Group_5">
<path id="Vector_10" d="M39.1844 26.9972C39.1844 36.2118 31.7145 43.6816 22.4999 43.6816C13.308 43.6817 5.88425 36.3158 5.81587 27.1242C5.79021 23.6825 6.80675 20.4797 8.56869 17.8126C8.96094 17.2188 11.25 14.0626 11.25 14.0626L12.7939 15.6066C13.1841 15.9968 13.6646 16.2846 14.1928 16.4445C14.7209 16.6044 15.2804 16.6315 15.8215 16.5233C17.3945 16.2087 18.5246 14.8242 18.5158 13.2201C18.5067 11.5664 18.7317 9.41152 19.6874 7.50017C21.6927 3.48965 25.3124 1.87518 25.3124 1.87518C25.3124 1.87518 27.0478 8.43752 34.6873 16.8751C37.0589 19.4943 39.1844 23.191 39.1844 26.9972Z" fill="black" style="fill:black;fill:black;fill-opacity:1;"/>
<path id="Vector_11" d="M27.6971 31.315C27.6971 30.1563 27.3166 29.8103 26.9361 29.8103C26.5556 29.8103 26.1751 30.1563 26.1751 31.315C26.1751 32.4738 26.5556 32.8197 26.9361 32.8197C27.3166 32.8197 27.6971 32.4738 27.6971 31.315ZM23.7192 31.315C23.7192 29.1705 25.1028 27.9425 26.9361 27.9425C28.7693 27.9425 30.1529 29.1705 30.1529 31.315C30.1529 33.4769 28.7693 34.6876 26.9361 34.6876C25.1028 34.6876 23.7192 33.4769 23.7192 31.315ZM18.8248 25.6077C18.8248 24.4489 18.4443 24.1031 18.0638 24.1031C17.6834 24.1031 17.3029 24.4489 17.3029 25.6077C17.3029 26.7664 17.6834 27.1124 18.0638 27.1124C18.4443 27.1124 18.8248 26.7664 18.8248 25.6077ZM25.172 22.4082H28.0948L19.8279 34.5146H16.9051L25.172 22.4082ZM14.847 25.6077C14.847 23.4632 16.2306 22.2353 18.0638 22.2353C19.897 22.2353 21.2807 23.4632 21.2807 25.6077C21.2807 27.7696 19.897 28.9802 18.0638 28.9802C16.2306 28.9802 14.847 27.7696 14.847 25.6077Z" fill="white" style="fill:white;fill:white;fill-opacity:1;"/>
</g>
</g>
</g>
<path id="Vector_12" d="M28.7511 45H29.2443L29.1138 44.6738L28.7511 45Z" fill="black" style="fill:black;fill:black;fill-opacity:1;"/>
<path id="Vector_13" d="M26.8279 44.9565L26.7796 45H30.6642L29.6362 42.4306L26.8279 44.9565Z" fill="white" style="fill:white;fill:white;fill-opacity:1;"/>
</g>
</g>
</g>
</g>
</g>
<defs>
<clipPath id="clip0_11_283">
<rect width="45" height="45" fill="white" style="fill:white;fill:white;fill-opacity:1;"/>
</clipPath>
</defs>
</svg>
