<svg width="43" height="43" viewBox="0 0 43 43" fill="none" xmlns="http://www.w3.org/2000/svg">
<g id="Frame">
<g id="Group">
<path id="Vector" d="M2.6875 24.6928V34.6096C2.6875 35.3099 2.96569 35.9815 3.46088 36.4767C3.95606 36.9719 4.62767 37.2501 5.32797 37.2501H32.7794C33.4794 37.2489 34.1502 36.9703 34.6452 36.4753C35.1401 35.9804 35.4187 35.3095 35.4199 34.6096C35.4226 32.9783 35.4179 26.193 35.4199 24.6928C34.7487 24.6954 3.35131 24.6921 2.6875 24.6928ZM9.74219 33.9243C8.78111 33.9243 7.8593 33.543 7.17909 32.864C6.49888 32.1851 6.11584 31.264 6.11406 30.3029C6.28203 25.5044 13.1943 25.499 13.3636 30.3029C13.362 31.2629 12.9799 32.1831 12.3011 32.8619C11.6223 33.5407 10.7022 33.9227 9.74219 33.9243ZM31.3215 33.2524H24.381C24.2028 33.2524 24.0319 33.1817 23.9059 33.0557C23.7799 32.9297 23.7091 32.7588 23.7091 32.5806C23.7091 32.4024 23.7799 32.2315 23.9059 32.1055C24.0319 31.9795 24.2028 31.9087 24.381 31.9087H31.3215C31.4997 31.9087 31.6706 31.9795 31.7966 32.1055C31.9226 32.2315 31.9933 32.4024 31.9933 32.5806C31.9933 32.7588 31.9226 32.9297 31.7966 33.0557C31.6706 33.1817 31.4997 33.2524 31.3215 33.2524ZM31.3215 30.9748H26.2085C26.0303 30.9748 25.8594 30.904 25.7334 30.778C25.6074 30.652 25.5366 30.4811 25.5366 30.3029C25.5366 30.1247 25.6074 29.9538 25.7334 29.8278C25.8594 29.7018 26.0303 29.631 26.2085 29.631H31.3215C31.4997 29.631 31.6706 29.7018 31.7966 29.8278C31.9226 29.9538 31.9933 30.1247 31.9933 30.3029C31.9933 30.4811 31.9226 30.652 31.7966 30.778C31.6706 30.904 31.4997 30.9748 31.3215 30.9748ZM2.6875 21.5155V23.3497H35.4199V21.5155H2.6875ZM32.7794 16.3756H5.32797C4.62805 16.3769 3.95716 16.6554 3.46225 17.1504C2.96733 17.6453 2.68874 18.3162 2.6875 19.0161V20.1717H35.4199V19.0161C35.4187 18.3162 35.1401 17.6453 34.6452 17.1504C34.1502 16.6554 33.4794 16.3769 32.7794 16.3756Z" fill="black" style="fill:black;fill:black;fill-opacity:1;"/>
<path id="Vector_2" d="M40.2507 23.2825L36.5688 7.58748C36.4215 6.97586 36.0393 6.44683 35.5049 6.11487C34.9705 5.78292 34.3269 5.67473 33.7133 5.81373L6.47016 12.1965C5.85461 12.3479 5.32396 12.7367 4.99414 13.278C4.66431 13.8193 4.5621 14.4692 4.70984 15.0856C5.16457 15.0313 5.62289 15.0134 6.08047 15.0319H32.7794C33.8358 15.0329 34.8486 15.453 35.5955 16.2C36.3425 16.9469 36.7626 17.9597 36.7637 19.0161V26.5411L38.4769 26.1447C39.0908 25.9989 39.622 25.6159 39.9544 25.0796C40.2868 24.5433 40.3933 23.8971 40.2507 23.2825ZM9.74219 28.0185C9.13722 28.0185 8.55704 28.2589 8.12927 28.6866C7.70149 29.1144 7.46117 29.6946 7.46117 30.2995C7.46117 30.9045 7.70149 31.4847 8.12927 31.9125C8.55704 32.3402 9.13722 32.5806 9.74219 32.5806C10.3471 32.5806 10.9273 32.3402 11.3551 31.9125C11.7829 31.4847 12.0232 30.9045 12.0232 30.2995C12.0232 29.6946 11.7829 29.1144 11.3551 28.6866C10.9273 28.2589 10.3471 28.0185 9.74219 28.0185Z" fill="black" style="fill:black;fill:black;fill-opacity:1;"/>
</g>
</g>
</svg>
