<svg width="48" height="48" viewBox="0 0 48 48" fill="none" xmlns="http://www.w3.org/2000/svg">
<g id="Frame">
<g id="Group">
<g id="Group_2">
<path id="Vector" fill-rule="evenodd" clip-rule="evenodd" d="M24.5461 6.46984C21.0559 6.35272 17.6169 7.33313 14.7131 9.27304C11.4481 11.4558 9.05704 14.7196 7.96001 18.4906C7.66295 18.4544 7.30721 18.4704 6.88481 18.5898C5.30775 19.0378 4.12215 20.3296 3.58881 21.4677C2.89655 22.9509 2.60481 24.913 2.91255 26.9376C3.21815 28.9562 4.07095 30.6202 5.13761 31.6533C6.20748 32.6869 7.41548 33.0229 8.61548 32.7706C10.4021 32.3893 11.288 32.104 11.0379 30.44L9.82721 22.3706C9.95017 20.1744 10.582 18.0369 11.673 16.1268C12.7639 14.2168 14.2839 12.5865 16.1131 11.3648C18.5782 9.71563 21.4983 8.88092 24.4626 8.97813C27.4269 9.07533 30.2861 10.0995 32.6379 11.9066C34.2616 13.1515 35.5968 14.7329 36.5519 16.5424C37.507 18.3518 38.0594 20.3464 38.1712 22.3893L37.3243 28.0336C36.4054 30.5526 34.7911 32.7595 32.6687 34.3982C30.5464 36.037 28.0029 37.0405 25.3333 37.2922H21.7248C21.504 37.2918 21.2853 37.3349 21.0812 37.4191C20.8771 37.5033 20.6916 37.6271 20.5354 37.7831C20.3792 37.9392 20.2554 38.1246 20.171 38.3287C20.0866 38.5327 20.0434 38.7514 20.0437 38.9722V39.8586C20.0433 40.0795 20.0865 40.2983 20.1709 40.5024C20.2552 40.7065 20.379 40.8919 20.5352 41.0481C20.6914 41.2042 20.8769 41.328 21.081 41.4123C21.2852 41.4965 21.504 41.5397 21.7248 41.5392H26.2747C26.4953 41.5395 26.7138 41.4963 26.9176 41.412C27.1214 41.3276 27.3066 41.2038 27.4625 41.0477C27.6183 40.8916 27.7418 40.7063 27.8258 40.5023C27.9098 40.2983 27.9527 40.0798 27.952 39.8592V39.3952C32.0399 38.3942 35.6012 35.8912 37.9275 32.384L39.3851 32.7706C40.5712 33.0784 41.7936 32.6864 42.8629 31.6533C43.9296 30.6197 44.7819 28.9562 45.088 26.9376C45.3973 24.9125 45.0965 22.9541 44.4128 21.4677C43.7264 19.9813 42.704 19.0373 41.5238 18.6986C41.0294 18.5562 40.4928 18.504 40.0325 18.4906C39.0419 15.08 36.9884 12.0746 34.1712 9.91198C31.4019 7.78603 28.0356 6.58216 24.5461 6.46984Z" fill="black" style="fill:black;fill:black;fill-opacity:1;"/>
<path id="Vector_2" fill-rule="evenodd" clip-rule="evenodd" d="M29.872 20.9867C30.45 20.9874 31.0041 21.2173 31.4127 21.6261C31.8214 22.0348 32.0512 22.589 32.0517 23.1669C32.0508 23.7449 31.8207 24.2989 31.4121 24.7075C31.0034 25.1162 30.4494 25.3462 29.8715 25.3472C29.2929 25.3473 28.7379 25.1178 28.3285 24.709C27.9191 24.3002 27.6887 23.7455 27.688 23.1669C27.6881 22.8804 27.7447 22.5966 27.8545 22.3319C27.9644 22.0672 28.1252 21.8268 28.328 21.6242C28.5308 21.4217 28.7714 21.2611 29.0363 21.1517C29.3011 21.0422 29.5849 20.9859 29.8715 20.9861L29.872 20.9867ZM24 20.9867C24.4312 20.9869 24.8526 21.1149 25.2109 21.3546C25.5693 21.5943 25.8486 21.9348 26.0135 22.3332C26.1784 22.7316 26.2214 23.1699 26.1372 23.5927C26.053 24.0156 25.8453 24.404 25.5404 24.7088C25.2355 25.0136 24.8471 25.2212 24.4242 25.3053C24.0014 25.3894 23.563 25.3463 23.1647 25.1813C22.7664 25.0163 22.4259 24.737 22.1863 24.3785C21.9467 24.0201 21.8188 23.5986 21.8187 23.1675C21.8184 22.8809 21.8746 22.5972 21.9841 22.3324C22.0937 22.0676 22.2543 21.827 22.4569 21.6244C22.6596 21.4218 22.9001 21.2611 23.1649 21.1516C23.4297 21.0421 23.7135 20.9864 24 20.9867ZM18.1296 20.9867C18.42 20.9802 18.7087 21.0319 18.9789 21.1386C19.249 21.2453 19.4951 21.4048 19.7027 21.6079C19.9104 21.811 20.0754 22.0535 20.188 22.3213C20.3006 22.589 20.3586 22.8765 20.3586 23.1669C20.3586 23.4574 20.3006 23.7449 20.188 24.0126C20.0754 24.2803 19.9104 24.5229 19.7027 24.726C19.4951 24.929 19.249 25.0886 18.9789 25.1953C18.7087 25.302 18.42 25.3536 18.1296 25.3472C17.5572 25.3383 17.0113 25.1046 16.6096 24.6966C16.208 24.2887 15.9829 23.7391 15.9829 23.1667C15.9829 22.5942 16.208 22.0447 16.6096 21.6367C17.0113 21.2288 17.5572 20.9956 18.1296 20.9867ZM24 11.6192C17.6053 11.6192 12.4523 16.6027 12.4523 23.1664C12.4523 26.3189 13.6443 29.1051 15.5861 31.1493L14.8971 34.2384C14.6699 35.2549 15.3749 35.9387 16.2891 35.4299L19.3051 33.7472C20.787 34.3888 22.3852 34.7182 24 34.7147C30.3968 34.7147 35.5467 29.7344 35.5467 23.168C35.5467 16.6037 30.3968 11.6203 24 11.6203V11.6192Z" fill="black" style="fill:black;fill:black;fill-opacity:1;"/>
</g>
</g>
</g>
</svg>
