<svg width="36" height="36" viewBox="0 0 36 36" fill="none" xmlns="http://www.w3.org/2000/svg">
<g id="Frame" clip-path="url(#clip0_11_330)">
<g id="Group">
<path id="Vector" d="M35.3994 18.9458C33.4658 12.7245 27.3286 8.47892 19.9723 8.35281V1.08061C19.9723 0.744324 19.678 0.450073 19.3417 0.450073C19.2156 0.450073 19.0895 0.492109 18.9634 0.576181L0.25747 14.1117C-0.0367814 14.3219 -0.0788172 14.7002 0.131362 14.9945L0.25747 15.1206L18.9634 28.572C19.2577 28.7822 19.636 28.6982 19.8462 28.4459C19.9302 28.3198 19.9723 28.1937 19.9723 28.0676V20.8375C24.5121 20.8375 28.3374 22.9813 29.6826 26.218C30.8175 28.9924 29.8927 31.9769 27.2024 34.4571C26.9502 34.7093 26.9082 35.0876 27.1604 35.3398C27.2865 35.4659 27.4547 35.55 27.6228 35.55H28.1272C28.2533 35.55 28.3794 35.508 28.4635 35.4239C34.6428 31.3464 37.291 24.999 35.3994 18.9458Z" fill="black" style="fill:black;fill:black;fill-opacity:1;"/>
</g>
</g>
<defs>
<clipPath id="clip0_11_330">
<rect width="36" height="36" fill="white" style="fill:white;fill:white;fill-opacity:1;"/>
</clipPath>
</defs>
</svg>
