<svg width="37" height="37" viewBox="0 0 37 37" fill="none" xmlns="http://www.w3.org/2000/svg">
<path d="M12.3603 1.15625H4.98344C2.86974 1.15625 1.15625 2.86974 1.15625 4.98344V12.3603C1.15625 14.474 2.86974 16.1875 4.98344 16.1875H12.3603C14.474 16.1875 16.1875 14.474 16.1875 12.3603V4.98344C16.1875 2.86974 14.474 1.15625 12.3603 1.15625Z" fill="black" style="fill:black;fill:black;fill-opacity:1;"/>
<path d="M32.0166 1.15625H24.6397C22.526 1.15625 20.8125 2.86974 20.8125 4.98344V12.3603C20.8125 14.474 22.526 16.1875 24.6397 16.1875H32.0166C34.1303 16.1875 35.8438 14.474 35.8438 12.3603V4.98344C35.8438 2.86974 34.1303 1.15625 32.0166 1.15625Z" fill="black" style="fill:black;fill:black;fill-opacity:1;"/>
<path d="M12.3603 20.8125H4.98344C2.86974 20.8125 1.15625 22.526 1.15625 24.6397V32.0166C1.15625 34.1303 2.86974 35.8438 4.98344 35.8438H12.3603C14.474 35.8438 16.1875 34.1303 16.1875 32.0166V24.6397C16.1875 22.526 14.474 20.8125 12.3603 20.8125Z" fill="black" style="fill:black;fill:black;fill-opacity:1;"/>
<path d="M28.3281 35.8438C32.4789 35.8438 35.8438 32.4789 35.8438 28.3281C35.8438 24.1774 32.4789 20.8125 28.3281 20.8125C24.1774 20.8125 20.8125 24.1774 20.8125 28.3281C20.8125 32.4789 24.1774 35.8438 28.3281 35.8438Z" fill="black" style="fill:black;fill:black;fill-opacity:1;"/>
</svg>
