<svg width="31" height="31" viewBox="0 0 31 31" fill="none" xmlns="http://www.w3.org/2000/svg">
<path d="M15.5 1.29167C12.6899 1.29167 9.94282 2.12497 7.60627 3.6862C5.26972 5.24744 3.4486 7.46647 2.37321 10.0627C1.29781 12.6589 1.01644 15.5158 1.56467 18.2719C2.1129 21.0281 3.46612 23.5597 5.45319 25.5468C7.44026 27.5339 9.97194 28.8871 12.7281 29.4353C15.4842 29.9836 18.3411 29.7022 20.9373 28.6268C23.5335 27.5514 25.7526 25.7303 27.3138 23.3937C28.875 21.0572 29.7083 18.3101 29.7083 15.5C29.7039 11.7331 28.2055 8.12172 25.5419 5.4581C22.8783 2.79448 19.2669 1.29611 15.5 1.29167ZM20.2882 20.2882C20.046 20.5304 19.7175 20.6664 19.375 20.6664C19.0325 20.6664 18.704 20.5304 18.4618 20.2882L14.5868 16.4132C14.3445 16.171 14.2084 15.8425 14.2083 15.5V7.75C14.2083 7.40743 14.3444 7.07889 14.5866 6.83666C14.8289 6.59442 15.1574 6.45833 15.5 6.45833C15.8426 6.45833 16.1711 6.59442 16.4133 6.83666C16.6556 7.07889 16.7917 7.40743 16.7917 7.75V14.9653L20.2882 18.4618C20.5304 18.704 20.6664 19.0325 20.6664 19.375C20.6664 19.7175 20.5304 20.046 20.2882 20.2882Z" fill="black" style="fill:black;fill:black;fill-opacity:1;"/>
</svg>
