<svg width="31" height="31" viewBox="0 0 31 31" fill="none" xmlns="http://www.w3.org/2000/svg">
<g clip-path="url(#clip0_3_938)">
<path d="M31 9.86914V8.23438C31 6.36178 29.482 4.84375 27.6094 4.84375H3.39062C1.51803 4.84375 0 6.36178 0 8.23438V9.86914C0 9.94943 0.0318951 10.0264 0.0886688 10.0832C0.145443 10.14 0.222444 10.1719 0.302734 10.1719H30.6973C30.7776 10.1719 30.8546 10.14 30.9113 10.0832C30.9681 10.0264 31 9.94943 31 9.86914ZM0 12.4121V22.7656C0 24.6382 1.51803 26.1562 3.39062 26.1562H27.6094C29.482 26.1562 31 24.6382 31 22.7656V12.4121C31 12.3318 30.9681 12.2548 30.9113 12.198C30.8546 12.1413 30.7776 12.1094 30.6973 12.1094H0.302734C0.222444 12.1094 0.145443 12.1413 0.0886688 12.198C0.0318951 12.2548 0 12.3318 0 12.4121ZM7.75 20.3438C7.75 20.8787 7.31624 21.3125 6.78125 21.3125H5.8125C5.27751 21.3125 4.84375 20.8787 4.84375 20.3438V19.375C4.84375 18.84 5.27751 18.4062 5.8125 18.4062H6.78125C7.31624 18.4062 7.75 18.84 7.75 19.375V20.3438Z" fill="black" style="fill:black;fill:black;fill-opacity:1;"/>
</g>
<defs>
<clipPath id="clip0_3_938">
<rect width="31" height="31" fill="white" style="fill:white;fill:white;fill-opacity:1;"/>
</clipPath>
</defs>
</svg>
