<svg width="32" height="32" viewBox="0 0 32 32" fill="none" xmlns="http://www.w3.org/2000/svg">
<g clip-path="url(#clip0_3_935)">
<path d="M20.1538 12.2581C14.7112 12.2581 10.2828 16.6865 10.2828 22.129C10.2828 27.5716 14.7112 32 20.1538 32C25.5964 32 30.0248 27.5716 30.0248 22.129C30.0248 16.6865 25.5964 12.2581 20.1538 12.2581ZM18.0325 18.2123C18.7886 18.2123 19.4041 18.8271 19.4041 19.5832C19.4041 20.3399 18.7886 20.9555 18.0325 20.9555C17.2764 20.9555 16.6609 20.34 16.6609 19.5832C16.6609 18.8271 17.2764 18.2123 18.0325 18.2123ZM22.2751 26.0458C21.519 26.0458 20.9035 25.431 20.9035 24.6748C20.9035 23.9181 21.519 23.3026 22.2751 23.3026C23.0312 23.3026 23.6467 23.9181 23.6467 24.6748C23.6467 25.431 23.0312 26.0458 22.2751 26.0458ZM23.4293 20.3135L18.3383 25.4045C18.2425 25.5004 18.1287 25.5765 18.0034 25.6284C17.8782 25.6803 17.7439 25.707 17.6083 25.707C17.4727 25.707 17.3385 25.6803 17.2132 25.6284C17.088 25.5765 16.9742 25.5004 16.8783 25.4045C16.4751 25.0012 16.4751 24.3477 16.8783 23.9445L21.9693 18.8535C22.3725 18.4503 23.0261 18.4503 23.4293 18.8535C23.8325 19.2568 23.8325 19.9103 23.4293 20.3135ZM17.3796 0H10.6699C9.88581 0 9.3882 0.841677 9.76478 1.52839L11.7364 5.12645C10.3324 5.96181 9.88155 7.74916 10.6661 9.13548C7.18736 10.32 4.48155 13.2961 3.75833 17.0645L2.06929 25.8658C1.45858 29.0509 3.9 32 7.13832 32H11.4376C12.2145 32 12.5947 31.0555 12.0365 30.5152C5.42052 24.1101 8.50471 12.9948 17.3332 10.797C18.1545 10.5925 18.2428 9.42613 17.3835 9.13542C18.1679 7.74929 17.7174 5.96181 16.3132 5.12639L18.2848 1.52832C18.6619 0.840645 18.1626 0 17.3796 0ZM14.799 8.58064H13.2506C12.6577 8.58064 12.1964 8.00581 12.3938 7.38452C12.5106 7.01613 12.8641 6.77419 13.2506 6.77419H14.799C15.1854 6.77419 15.539 7.01613 15.6557 7.38452C15.8532 8.00581 15.3919 8.58064 14.799 8.58064Z" fill="black" style="fill:black;fill:black;fill-opacity:1;"/>
</g>
<defs>
<clipPath id="clip0_3_935">
<rect width="32" height="32" fill="white" style="fill:white;fill:white;fill-opacity:1;"/>
</clipPath>
</defs>
</svg>
