<svg width="119" height="60" viewBox="0 0 119 60" fill="none" xmlns="http://www.w3.org/2000/svg">
<g id="Group 277137144">
<g id="Group">
<path id="Vector" d="M87.5394 1.6834C85.5151 1.7639 84.0448 1.98291 83.1285 2.34042C82.2122 2.69557 81.5836 3.35141 81.2427 4.30794C80.8994 5.26447 80.7277 6.79633 80.7277 8.90354V50.5907C80.7277 52.6956 80.8994 54.2274 81.2427 55.1863C81.5836 56.1429 82.2122 56.7987 83.1285 57.1538C84.0448 57.509 85.5151 57.728 87.5394 57.8109V59.4943C85.2144 59.3285 81.631 59.2457 76.7891 59.2457C72.3024 59.2457 68.7462 59.3285 66.1205 59.4943V57.8109C68.1449 57.728 69.6152 57.509 70.5314 57.1538C71.4477 56.7987 72.0775 56.1429 72.4208 55.1863C72.7618 54.2274 72.9322 52.6956 72.9322 50.5907V30.4042H45.6072V50.5907C45.6072 52.6956 45.7777 54.2274 46.1186 55.1863C46.4619 56.1429 47.0917 56.7987 48.008 57.1538C48.9243 57.509 50.3946 57.728 52.4189 57.8109V59.4943C49.8477 59.3285 46.2915 59.2457 41.7503 59.2457C36.9369 59.2457 33.3534 59.3285 31 59.4943V57.8109C33.0243 57.728 34.4946 57.509 35.4109 57.1538C36.3272 56.7987 36.957 56.1429 37.3003 55.1863C37.6413 54.2274 37.8117 52.6956 37.8117 50.5907V8.90354C37.8117 6.79633 37.6413 5.26447 37.3003 4.30794C36.957 3.35141 36.3272 2.69557 35.4109 2.34042C34.4946 1.98291 33.0243 1.7639 31 1.6834V0C33.325 0.163368 36.9085 0.245052 41.7503 0.245052C46.2915 0.245052 49.8477 0.163368 52.4189 0V1.6834C50.3946 1.7639 48.9243 1.98291 48.008 2.34042C47.0917 2.69557 46.4619 3.35141 46.1186 4.30794C45.7777 5.26447 45.6072 6.79633 45.6072 8.90354V28.7208H72.9322V8.90354C72.9322 6.79633 72.7618 5.26447 72.4208 4.30794C72.0775 3.35141 71.4477 2.69557 70.5314 2.34042C69.6152 1.98291 68.1449 1.7639 66.1205 1.6834V0C68.7462 0.163368 72.3024 0.245052 76.7891 0.245052C81.6026 0.245052 85.186 0.163368 87.5394 0V1.6834Z" fill="black" style="fill:black;fill:black;fill-opacity:1;"/>
</g>
<g id="Group_2">
<path id="Vector_2" d="M119 23.4943H0V34.4943H119V23.4943Z" fill="#000001" style="fill:#000001;fill:color(display-p3 0.0000 0.0000 0.0039);fill-opacity:1;"/>
</g>
<g id="Group_3">
<path id="Vector_3" d="M41.0345 31.4136C41.0345 31.8824 41.1943 31.9605 41.379 31.9605C41.5459 31.9605 41.8229 31.925 42.0147 31.8362C41.8833 31.7296 41.8655 31.5201 41.8655 31.165V26.9281C41.8655 26.5125 41.8478 26.0793 41.8051 25.7099C41.4677 25.7099 41.1233 25.7525 40.9705 25.788C41.0238 26.2923 41.0345 26.6191 41.0345 27.063V28.5298H37.9198V26.9281C37.9198 26.5125 37.9021 26.0793 37.8595 25.7099C37.5043 25.7099 37.1527 25.7525 37 25.788C37.071 26.2923 37.0888 26.6191 37.0888 27.063V31.4136C37.0888 31.8824 37.2415 31.9605 37.4262 31.9605C37.5753 31.9605 37.8346 31.925 38.0193 31.8362C37.9305 31.7296 37.9198 31.5201 37.9198 31.165V29.0163H41.0345V31.4136Z" fill="white" style="fill:white;fill:white;fill-opacity:1;"/>
<path id="Vector_4" d="M50.318 28.992C50.7868 28.992 50.8685 28.9032 50.8685 28.786C50.8685 28.6901 50.8401 28.541 50.7442 28.4344C50.6377 28.4877 50.4246 28.4948 50.073 28.4948H48.1978C48.0629 28.4948 47.9315 28.4948 47.8072 28.5055V26.957C47.8072 26.7084 47.8001 26.4705 47.7823 26.2396C47.9315 26.2325 48.0806 26.2325 48.2511 26.2325H50.5489C51.0106 26.2325 51.0887 26.1437 51.0887 26.0194C51.0887 25.92 51.0639 25.7708 50.9751 25.6572C50.8685 25.7282 50.6483 25.7353 50.2932 25.7353H48.1161C47.7006 25.7353 47.2602 25.7531 46.8873 25.7992C46.9584 26.2929 46.9761 26.6374 46.9761 27.0813V31.4923C46.9761 31.6769 47.0116 31.8723 47.0578 31.9895C47.5621 31.9362 47.8888 31.9255 48.3292 31.9255H50.6306C51.0994 31.9255 51.1775 31.8296 51.1775 31.7124C51.1775 31.6094 51.1491 31.4496 51.0532 31.3324C50.9467 31.4212 50.7336 31.4319 50.382 31.4319H48.1978C48.0629 31.4319 47.9421 31.4319 47.8072 31.439V28.9991C47.9776 28.992 48.1445 28.992 48.3292 28.992H50.318Z" fill="white" style="fill:white;fill:white;fill-opacity:1;"/>
<path id="Vector_5" d="M58.4474 31.4141C58.4474 31.8829 58.6072 31.961 58.799 31.961C58.9588 31.961 59.2323 31.9255 59.4276 31.8367C59.3033 31.7408 59.2784 31.5384 59.2784 31.2117C60.9121 31.1655 62.0095 30.1675 62.0095 28.7327C62.0095 27.3263 60.8943 26.371 59.2678 26.3639C59.2607 26.133 59.2429 25.9058 59.2145 25.6998C58.87 25.6998 58.5184 25.7459 58.3586 25.7886C58.3941 26.0087 58.4119 26.197 58.4296 26.3639C56.803 26.4172 55.7234 27.4151 55.7234 28.8393C55.7234 30.2457 56.8279 31.2117 58.4474 31.2117V31.4141ZM56.6077 28.7789C56.6077 27.6566 57.3393 26.886 58.4474 26.8575V30.7145C57.3571 30.6789 56.6077 29.8941 56.6077 28.7789ZM61.1181 28.7967C61.1181 29.9189 60.3758 30.6967 59.2784 30.7145V26.8575C60.3652 26.9037 61.1181 27.6815 61.1181 28.7967Z" fill="white" style="fill:white;fill:white;fill-opacity:1;"/>
<path id="Vector_6" d="M70.5259 26.2325C70.9876 26.2325 71.0657 26.1331 71.0657 26.0088C71.0657 25.9129 71.0373 25.7531 70.9521 25.6288C70.8455 25.7175 70.6218 25.7353 70.2702 25.7353H67.1378C66.7223 25.7353 66.2819 25.7531 65.909 25.7992C65.909 25.9839 65.9552 26.1792 65.9978 26.2929C66.495 26.2396 66.8288 26.2325 67.2728 26.2325H68.0505C68.0754 26.5237 68.0754 26.7617 68.0754 27.0635V31.4141C68.0754 31.8829 68.2459 31.961 68.4305 31.961C68.5975 31.961 68.8638 31.9255 69.0592 31.8367C68.9349 31.7302 68.9064 31.5206 68.9064 31.1655V26.9286C68.9064 26.6906 68.8993 26.4598 68.8887 26.2325H70.5259Z" fill="white" style="fill:white;fill:white;fill-opacity:1;"/>
<path id="Vector_7" d="M78.0444 28.2107V26.957C78.0444 26.5415 78.0266 26.1082 77.9805 25.7353H76.5563C76.1408 25.7353 75.7004 25.753 75.3275 25.7992C75.3275 25.9839 75.3737 26.1792 75.4163 26.2929C75.91 26.2396 76.2473 26.2325 76.6913 26.2325H77.1778C77.2027 26.5308 77.2098 26.7794 77.2098 27.0884V31.4922C77.2098 31.6769 77.256 31.8723 77.2986 31.9894C77.7958 31.9362 78.1296 31.9255 78.5735 31.9255H79.1205C80.4665 31.9255 81.3757 31.1584 81.3757 30.0255C81.3757 28.9458 80.5091 28.2107 79.2448 28.2107H78.0444ZM78.3001 28.6972H79.1844C79.987 28.6972 80.5269 29.2655 80.5269 30.0681C80.5269 30.892 79.987 31.4319 79.2022 31.4319H78.4421C78.3072 31.4319 78.1758 31.4319 78.0444 31.439V28.7079C78.1119 28.6972 78.2006 28.6972 78.3001 28.6972Z" fill="white" style="fill:white;fill:white;fill-opacity:1;"/>
</g>
</g>
</svg>
