<svg width="0" height="0" class="hidden">
  <symbol xmlns="http://www.w3.org/2000/svg" viewBox="0 0 5 9" id="ic_arr_hor">
    <path d="M1 7.83906L4.33333 4.50573L1 1.17239" stroke="currentColor" stroke-linecap="round" stroke-linejoin="round" fill="none"></path>
  </symbol>
  <symbol xmlns="http://www.w3.org/2000/svg" viewBox="0 0 26 6" id="ic_arrow_hor">
    <path d="M0 3L5 5.88675V0.113249L0 3ZM4.5 3.5H26V2.5H4.5V3.5Z" fill="currentColor"></path>
  </symbol>
  <symbol xmlns="http://www.w3.org/2000/svg" viewBox="0 0 24 24" id="ic_check">
    <path d="M22 11.0801V12.0001C21.9988 14.1565 21.3005 16.2548 20.0093 17.9819C18.7182 19.7091 16.9033 20.9726 14.8354 21.584C12.7674 22.1954 10.5573 22.122 8.53447 21.3747C6.51168 20.6274 4.78465 19.2462 3.61096 17.4372C2.43727 15.6281 1.87979 13.4882 2.02168 11.3364C2.16356 9.18467 2.99721 7.13643 4.39828 5.49718C5.79935 3.85793 7.69279 2.71549 9.79619 2.24025C11.8996 1.76502 14.1003 1.98245 16.07 2.86011" stroke="currentColor" stroke-width="2" stroke-linecap="round" stroke-linejoin="round" fill="none"></path>
    <path d="M22 4L12 14.01L9 11.01" stroke="currentColor" stroke-width="2" stroke-linecap="round" stroke-linejoin="round" fill="none"></path>
  </symbol>
  <symbol xmlns="http://www.w3.org/2000/svg" viewBox="0 0 28 28" id="ic_close">
    <path d="M2.80005 2.79999L25.2 25.2M2.80005 25.2L25.2 2.79999" stroke="currentColor"></path>
  </symbol>
  <symbol xmlns="http://www.w3.org/2000/svg" viewBox="0 0 24 24" id="ic_map">
    <path d="M1 6V22L8 18L16 22L23 18V2L16 6L8 2L1 6Z" stroke="currentColor" stroke-width="2" stroke-linecap="round" stroke-linejoin="round" fill="none"></path>
    <path d="M8 2V18" stroke="currentColor" stroke-width="2" stroke-linecap="round" stroke-linejoin="round" fill="none"></path>
    <path d="M16 6V22" stroke="currentColor" stroke-width="2" stroke-linecap="round" stroke-linejoin="round" fill="none"></path>
  </symbol>
  <symbol xmlns="http://www.w3.org/2000/svg" viewBox="0 0 24 24" id="ic_minus">
    <path d="M5 12H19" stroke="currentColor" stroke-width="2" stroke-linecap="round" stroke-linejoin="round" fill="none"></path>
  </symbol>
  <symbol xmlns="http://www.w3.org/2000/svg" viewBox="0 0 20 20" id="ic_notice">
    <path d="M10 18.3332C14.6024 18.3332 18.3333 14.6022 18.3333 9.99984C18.3333 5.39746 14.6024 1.6665 10 1.6665C5.39763 1.6665 1.66667 5.39746 1.66667 9.99984C1.66667 14.6022 5.39763 18.3332 10 18.3332Z" stroke="currentColor" stroke-width="2" stroke-linecap="round" stroke-linejoin="round" fill="none"></path>
    <path d="M10 13.3333V10" stroke="currentColor" stroke-width="2" stroke-linecap="round" stroke-linejoin="round" fill="none"></path>
    <path d="M10 6.6665H10.0083" stroke="currentColor" stroke-width="2" stroke-linecap="round" stroke-linejoin="round" fill="none"></path>
  </symbol>
  <symbol xmlns="http://www.w3.org/2000/svg" viewBox="0 0 24 24" id="ic_plus">
    <path d="M12 5V19" stroke="currentColor" stroke-width="2" stroke-linecap="round" stroke-linejoin="round" fill="none"></path>
    <path d="M5 12H19" stroke="currentColor" stroke-width="2" stroke-linecap="round" stroke-linejoin="round" fill="none"></path>
  </symbol>
  <symbol xmlns="http://www.w3.org/2000/svg" viewBox="0 0 24 24" id="ic_power">
    <path d="M13 2L3 14H12L11 22L21 10H12L13 2Z" stroke="currentColor" stroke-width="2" stroke-linecap="round" stroke-linejoin="round" fill="none"></path>
  </symbol>
</svg>